<?xml version="1.0" standalone="no"?>
<!DOCTYPE svg PUBLIC "-//W3C//DTD SVG 20010904//EN"
 "http://www.w3.org/TR/2001/REC-SVG-20010904/DTD/svg10.dtd">
<svg version="1.0" xmlns="http://www.w3.org/2000/svg"
 width="200.000000pt" height="200.000000pt" viewBox="0 0 200.000000 200.000000"
 preserveAspectRatio="xMidYMid meet">
<metadata>
Created by potrace 1.14, written by Peter Selinger 2001-2017
</metadata>
<g transform="translate(0.000000,200.000000) scale(0.100000,-0.100000)"
fill="#000000" stroke="none">
<path d="M719 1846 c-2 -2 -23 -6 -46 -10 -66 -9 -182 -61 -245 -111 -193
-152 -279 -403 -219 -638 30 -114 74 -191 161 -278 83 -84 178 -138 285 -164
90 -22 614 -21 656 0 64 34 87 120 49 182 -39 65 -41 66 -358 68 -317 2 -336
5 -418 68 -199 152 -175 467 46 581 25 13 59 27 75 31 17 5 278 10 580 11 303
1 553 2 558 3 4 1 7 60 7 131 l0 130 -564 0 c-310 0 -565 -2 -567 -4z"/>
<path d="M734 1360 c-63 -26 -95 -126 -59 -187 38 -64 48 -66 364 -67 l286 -2
61 -28 c121 -55 196 -165 200 -297 5 -131 -45 -234 -149 -306 -84 -57 -83 -57
-687 -58 l-555 -1 -3 -132 -3 -132 563 0 c627 1 634 1 766 67 72 36 173 123
218 188 148 211 145 521 -6 720 -41 55 -142 144 -195 172 -122 64 -173 72
-493 72 -158 0 -297 -4 -308 -9z"/>
</g>
</svg>
